<svg width="24" height="24" viewBox="0 0 24 24" fill="none" xmlns="http://www.w3.org/2000/svg">
<g clip-path="url(#clip0_395_1728)">
<path d="M12 4C10.4093 4.00211 8.88445 4.63493 7.75969 5.75969C6.63493 6.88445 6.00211 8.40935 6 10C6 14.3075 11.59 19.7025 11.8275 19.93C11.8737 19.9749 11.9356 20 12 20C12.0644 20 12.1263 19.9749 12.1725 19.93C12.41 19.7025 18 14.3075 18 10C17.9979 8.40935 17.3651 6.88445 16.2403 5.75969C15.1155 4.63493 13.5907 4.00211 12 4ZM12 12.75C11.4561 12.75 10.9244 12.5887 10.4722 12.2865C10.0199 11.9844 9.66747 11.5549 9.45933 11.0524C9.25119 10.5499 9.19673 9.99695 9.30284 9.4635C9.40895 8.93005 9.67086 8.44005 10.0555 8.05546C10.4401 7.67086 10.9301 7.40895 11.4635 7.30284C11.9969 7.19673 12.5499 7.25119 13.0524 7.45933C13.5549 7.66747 13.9844 8.01995 14.2865 8.47218C14.5887 8.92442 14.75 9.4561 14.75 10C14.7496 10.7292 14.4597 11.4284 13.9441 11.9441C13.4284 12.4597 12.7292 12.7496 12 12.75Z" fill="white"/>
</g>
<defs>
<clipPath id="clip0_395_1728">
<rect width="16" height="16" fill="white" transform="translate(4 4)"/>
</clipPath>
</defs>
</svg>
