<?xml version="1.0" encoding="UTF-8"?> <svg xmlns="http://www.w3.org/2000/svg" width="19" height="18" viewBox="0 0 19 18" fill="none"><g clip-path="url(#clip0_1429_90887)"><path d="M5.58131 13.5441H4.02284L1.65243 9.52513L2.14542 8.75075C1.9875 8.43965 1.87458 8.10573 1.81182 7.75639C1.78809 7.62469 1.77217 7.4925 1.76303 7.36035L0.398438 9.50383L2.78143 13.5441H1.85355C1.16495 13.5441 0.60477 14.1043 0.60477 14.7928V15.8025H6.8301V14.7928C6.8301 14.1043 6.26988 13.5441 5.58131 13.5441Z" fill="#FF5811"></path><path d="M17.2817 2.19727H5.89704C5.2818 2.19727 4.78125 2.69779 4.78125 3.31305V3.54646C5.18709 3.47934 5.60352 3.48159 6.01548 3.5556C6.74357 3.68641 7.40577 4.03291 7.93048 4.55762L8.65336 5.2805L4.82488 9.10891H18.3975V3.31305C18.3975 2.69779 17.897 2.19727 17.2817 2.19727Z" fill="#FF5811"></path><path d="M4.78125 10.1777V11.6724C4.78125 12.2876 5.28177 12.7881 5.89704 12.7881H9.08814L8.89959 14.7366H8.01714V15.8058H8.79613H14.3826H15.1616V14.7366H14.2791L14.0906 12.7881H17.2817C17.8969 12.7881 18.3974 12.2876 18.3974 11.6724V10.1777H4.78125Z" fill="#FF5811"></path><path d="M4.3519 4.77852L4.01767 4.9247L2.4973 3.4043L1.66406 4.23754L3.18443 5.7579L3.03829 6.09213C2.62102 7.04652 2.81782 8.13675 3.53817 8.88329L7.14309 5.27844C6.39652 4.55802 5.30632 4.36129 4.3519 4.77852Z" fill="#FF5811"></path></g><defs><clipPath id="clip0_1429_90887"><rect width="18" height="18" fill="white" transform="translate(0.398438)"></rect></clipPath></defs></svg> 