<?xml version="1.0" encoding="UTF-8"?> <svg xmlns="http://www.w3.org/2000/svg" width="40" height="40" viewBox="0 0 40 40" fill="none"><path d="M25 31.6667C25.442 31.6667 25.8659 31.8423 26.1785 32.1548C26.491 32.4674 26.6666 32.8913 26.6666 33.3333C26.6666 33.7754 26.491 34.1993 26.1785 34.5118C25.8659 34.8244 25.442 35 25 35H15C14.5579 35 14.134 34.8244 13.8214 34.5118C13.5089 34.1993 13.3333 33.7754 13.3333 33.3333C13.3333 32.8913 13.5089 32.4674 13.8214 32.1548C14.134 31.8423 14.5579 31.6667 15 31.6667H25ZM22.5 15V20H17.5V15H22.5Z" fill="url(#paint0_linear_2735_36274)"></path><path fill-rule="evenodd" clip-rule="evenodd" d="M32.9583 5.00833C34.4086 5.08308 35.7749 5.71181 36.7751 6.76473C37.7753 7.81766 38.3331 9.21441 38.3333 10.6667V24.3333C38.3333 25.8362 37.7363 27.2776 36.6736 28.3403C35.6109 29.403 34.1695 30 32.6666 30H7.33329C5.8304 30 4.38906 29.403 3.32635 28.3403C2.26365 27.2776 1.66663 25.8362 1.66663 24.3333V10.6667C1.66663 9.16377 2.26365 7.72243 3.32635 6.65973C4.38906 5.59702 5.8304 5 7.33329 5H32.6666L32.9583 5.00833ZM17.1666 11.6667C16.371 11.6667 15.6079 11.9827 15.0453 12.5453C14.4827 13.108 14.1666 13.871 14.1666 14.6667V20.3333C14.1666 21.129 14.4827 21.892 15.0453 22.4547C15.6079 23.0173 16.371 23.3333 17.1666 23.3333H22.8333C23.2273 23.3333 23.6174 23.2557 23.9813 23.105C24.3453 22.9542 24.676 22.7332 24.9546 22.4547C25.2332 22.1761 25.4542 21.8454 25.6049 21.4814C25.7557 21.1174 25.8333 20.7273 25.8333 20.3333V14.6667C25.8333 14.2727 25.7557 13.8826 25.6049 13.5186C25.4542 13.1546 25.2332 12.8239 24.9546 12.5453C24.676 12.2668 24.3453 12.0458 23.9813 11.895C23.6174 11.7443 23.2273 11.6667 22.8333 11.6667H17.1666Z" fill="url(#paint1_linear_2735_36274)"></path><defs><linearGradient id="paint0_linear_2735_36274" x1="20" y1="5" x2="20" y2="35" gradientUnits="userSpaceOnUse"><stop stop-color="#006FE3"></stop><stop offset="1" stop-color="#6FB5FF"></stop></linearGradient><linearGradient id="paint1_linear_2735_36274" x1="20" y1="5" x2="20" y2="35" gradientUnits="userSpaceOnUse"><stop stop-color="#006FE3"></stop><stop offset="1" stop-color="#6FB5FF"></stop></linearGradient></defs></svg> 